<?xml version="1.0" standalone="no"?>
<!DOCTYPE svg PUBLIC "-//W3C//DTD SVG 20010904//EN"
 "http://www.w3.org/TR/2001/REC-SVG-20010904/DTD/svg10.dtd">
<svg version="1.0" xmlns="http://www.w3.org/2000/svg"
 width="1890.000000pt" height="1890.000000pt" viewBox="0 0 1890.000000 1890.000000"
 preserveAspectRatio="xMidYMid meet">

<g transform="translate(0.000000,1890.000000) scale(0.100000,-0.100000)"
fill="#000000" stroke="none">
<path d="M7995 15174 c-621 -359 -1599 -925 -2172 -1256 -574 -332 -1042 -605
-1040 -608 1 -3 175 -173 387 -379 212 -206 435 -424 496 -484 l111 -109 1524
880 c838 483 1664 960 1834 1058 l310 179 1010 -583 c556 -321 1534 -885 2175
-1254 641 -369 1177 -680 1193 -690 l27 -19 0 -1769 0 -1768 -27 -6 c-16 -3
-73 -8 -128 -11 -95 -5 -150 -9 -317 -20 -40 -2 -113 -7 -163 -10 -49 -3 -124
-7 -165 -10 -41 -2 -122 -7 -180 -10 -58 -3 -240 -14 -405 -25 -165 -10 -396
-25 -513 -31 -116 -7 -217 -16 -223 -20 -8 -4 2 -46 30 -130 61 -186 132 -405
191 -589 29 -91 69 -217 90 -280 21 -63 70 -216 110 -340 40 -124 94 -292 121
-373 27 -82 49 -153 49 -159 0 -5 6 -24 14 -41 26 -61 58 -179 50 -186 -5 -4
-191 -113 -414 -241 -223 -128 -875 -505 -1450 -838 -575 -333 -1049 -605
-1055 -605 -5 0 -523 297 -1150 660 -2718 1573 -2654 1537 -2673 1521 -9 -8
-254 -214 -544 -457 -291 -243 -528 -445 -528 -449 0 -4 211 -128 468 -276
257 -149 973 -562 1592 -919 619 -357 1440 -831 1826 -1053 l700 -404 309 0
309 0 1355 782 c746 430 1421 819 1501 865 80 46 408 227 730 401 486 265 584
322 582 338 -3 18 -90 299 -132 424 -10 30 -53 163 -95 295 -96 300 -166 517
-215 665 -80 243 -102 322 -94 329 5 5 218 21 474 36 256 15 481 29 500 30 19
2 91 6 160 10 69 4 139 8 155 10 17 2 89 6 160 10 72 4 141 9 155 10 14 2 28
4 33 4 4 1 7 1208 7 2684 l0 2682 -152 152 -153 152 -635 366 c-349 202 -1128
652 -1730 1000 -602 348 -1439 831 -1859 1074 l-763 441 -317 -1 -316 -1
-1130 -654z"/>
<path d="M4283 13028 c-79 -45 -143 -86 -143 -90 0 -7 977 -961 990 -966 8 -3
292 160 294 169 1 7 -980 962 -992 966 -4 2 -71 -34 -149 -79z"/>
<path d="M3850 12447 l0 -214 462 -449 c255 -247 525 -509 600 -583 l138 -134
-1 224 0 224 -588 569 c-323 313 -592 571 -599 574 -9 3 -12 -48 -12 -211z"/>
<path d="M8124 11753 c-357 -206 -689 -398 -739 -426 l-90 -52 -2 -1825 -2
-1825 711 -410 c391 -225 726 -419 745 -430 26 -15 38 -17 51 -9 9 6 145 85
302 176 157 91 555 322 885 513 330 191 857 496 1170 678 314 181 575 334 582
341 9 8 -52 48 -250 163 -144 83 -481 277 -748 432 l-486 281 -309 -179 c-170
-98 -500 -289 -734 -424 l-425 -245 -3 469 c-1 258 -1 680 0 938 l3 469 125
-73 c69 -39 276 -159 460 -265 184 -106 456 -262 605 -348 148 -85 274 -155
280 -155 5 0 336 189 735 420 399 231 734 424 744 430 22 12 85 -27 -644 396
-261 151 -882 511 -1380 799 -498 288 -912 527 -921 530 -9 4 -259 -135 -665
-369z"/>
<path d="M3850 9291 l0 -2401 278 236 c152 129 422 358 599 507 l322 272 0
1315 1 1315 -551 535 c-303 294 -573 555 -600 578 l-49 44 0 -2401z"/>
<path d="M4446 7059 l-596 -501 0 -147 0 -147 29 -28 30 -28 133 113 c73 63
330 282 571 488 l437 374 0 188 c0 104 -2 189 -4 189 -2 0 -272 -225 -600
-501z"/>
<path d="M4634 6489 c-291 -242 -533 -445 -539 -450 -15 -15 62 -84 155 -139
l85 -49 50 49 c28 26 268 233 535 460 267 226 486 414 488 418 1 5 -44 34
-100 67 -57 32 -112 65 -124 72 -19 12 -60 -20 -550 -428z"/>
</g>
</svg>
